<svg width="15" height="15" viewBox="0 0 15 15" fill="none" xmlns="http://www.w3.org/2000/svg">
<path d="M13.7666 0.496094H0.876829C0.566845 0.496094 0.316406 0.746533 0.316406 1.05652V13.9462C0.316406 14.2562 0.566845 14.5067 0.876829 14.5067H13.7666C14.0765 14.5067 14.327 14.2562 14.327 13.9462V1.05652C14.327 0.746533 14.0765 0.496094 13.7666 0.496094ZM13.2061 13.3858H9.98195V9.08107H11.8033L12.0765 6.96722H9.98195V5.61696C9.98195 5.00399 10.1518 4.58718 11.0292 4.58718H12.1483V2.69575C11.9539 2.66948 11.2902 2.61169 10.5161 2.61169C8.90138 2.61169 7.7963 3.59768 7.7963 5.4068V6.96547H5.97142V9.07932H7.79805V13.3858H1.43725V1.61694H13.2061V13.3858Z" fill="white"/>
</svg>
