<svg width="15" height="15" viewBox="0 0 15 15" fill="none" xmlns="http://www.w3.org/2000/svg">
<path d="M0.5 0.496094C0.223858 0.496094 0 0.719951 0 0.996094V14.0067C0 14.2828 0.223858 14.5067 0.5 14.5067H13.5106C13.7867 14.5067 14.0106 14.2828 14.0106 14.0067V0.996094C14.0106 0.719952 13.7867 0.496094 13.5106 0.496094H0.5ZM1.27369 1.76978H12.7369V13.233H1.27369V1.76978ZM8.71839 4.08089C7.60392 4.08089 6.6754 5.08583 6.93459 6.32576C6.20791 6.28934 5.49703 6.10041 4.84815 5.77125C4.19927 5.4421 3.62692 4.98008 3.1683 4.41523C3.00415 4.69471 2.91835 5.01326 2.91993 5.33738C2.9197 5.63832 2.99389 5.93465 3.13589 6.19998C3.27789 6.46531 3.48329 6.69142 3.73382 6.85816C3.44457 6.848 3.16189 6.7692 2.9091 6.62826V6.64928C2.90825 7.07131 3.05348 7.48063 3.32012 7.80775C3.58677 8.13488 3.9584 8.35965 4.37193 8.44391C4.10256 8.51368 3.8214 8.52519 3.54722 8.47766C3.66419 8.84065 3.89173 9.15797 4.198 9.38522C4.50427 9.61246 4.87393 9.73825 5.25524 9.74498C4.60847 10.2521 3.80993 10.5269 2.98807 10.5251C2.84089 10.5264 2.69376 10.5194 2.54738 10.5041C3.38461 11.0409 4.35879 11.325 5.35331 11.3224C8.7133 11.3224 10.5525 8.5388 10.5525 6.12325C10.5525 6.04492 10.5525 5.96531 10.5461 5.88698C10.9038 5.62638 11.2137 5.30576 11.4619 4.93935C11.1276 5.08672 10.7729 5.1827 10.4099 5.22402C10.7909 4.99744 11.0762 4.63969 11.2123 4.21781C10.8543 4.43056 10.4622 4.57946 10.0532 4.65787C9.88221 4.47509 9.67537 4.32953 9.44559 4.23026C9.21582 4.13099 8.96869 4.08014 8.71839 4.08089Z" fill="white"/>
</svg>
