<svg width="19" height="13" viewBox="0 0 19 13" fill="none" xmlns="http://www.w3.org/2000/svg">
<path d="M18.5777 6.44539C18.5777 6.40161 18.5777 6.35185 18.5757 6.29414C18.5737 6.13294 18.5698 5.95183 18.5658 5.75879C18.5499 5.20354 18.522 4.65028 18.4782 4.12887C18.4185 3.41043 18.3309 2.8114 18.2115 2.36163C18.0855 1.89225 17.8385 1.46417 17.4952 1.12017C17.1519 0.776173 16.7244 0.528304 16.2552 0.401341C15.692 0.250091 14.5895 0.156555 13.0372 0.0988406C12.2988 0.0709787 11.5088 0.0530674 10.7187 0.0431167C10.442 0.0391364 10.1853 0.0371464 9.95446 0.0351562H9.36936C9.1385 0.0371464 8.88178 0.0391364 8.60515 0.0431167C7.81506 0.0530674 7.02498 0.0709787 6.28664 0.0988406C4.73433 0.158545 3.6298 0.252081 3.06858 0.401341C2.59931 0.527993 2.17157 0.775757 1.82822 1.1198C1.48487 1.46385 1.23798 1.8921 1.11228 2.36163C0.990881 2.8114 0.905305 3.41043 0.845601 4.12887C0.801818 4.65028 0.773956 5.20354 0.758035 5.75879C0.752064 5.95183 0.750074 6.13294 0.748084 6.29414C0.748084 6.35185 0.746094 6.40161 0.746094 6.44539V6.55684C0.746094 6.60062 0.746094 6.65037 0.748084 6.70809C0.750074 6.86929 0.754054 7.05039 0.758035 7.24343C0.773956 7.79868 0.801818 8.35194 0.845601 8.87336C0.905305 9.59179 0.992871 10.1908 1.11228 10.6406C1.36702 11.5939 2.11531 12.3461 3.06858 12.6009C3.6298 12.7521 4.73433 12.8457 6.28664 12.9034C7.02498 12.9312 7.81506 12.9492 8.60515 12.9591C8.88178 12.9631 9.1385 12.9651 9.36936 12.9671H9.95446C10.1853 12.9651 10.442 12.9631 10.7187 12.9591C11.5088 12.9492 12.2988 12.9312 13.0372 12.9034C14.5895 12.8437 15.694 12.7501 16.2552 12.6009C17.2085 12.3461 17.9568 11.5959 18.2115 10.6406C18.3329 10.1908 18.4185 9.59179 18.4782 8.87336C18.522 8.35194 18.5499 7.79868 18.5658 7.24343C18.5718 7.05039 18.5737 6.86929 18.5757 6.70809C18.5757 6.65037 18.5777 6.60062 18.5777 6.55684V6.44539ZM17.1448 6.54888C17.1448 6.59067 17.1448 6.63644 17.1428 6.69018C17.1408 6.84541 17.1369 7.01656 17.1329 7.20164C17.119 7.73102 17.0911 8.26039 17.0493 8.75196C16.9956 9.39278 16.9199 9.91818 16.8264 10.2704C16.703 10.7302 16.3408 11.0943 15.8831 11.2157C15.4651 11.3272 14.4124 11.4168 12.9815 11.4705C12.257 11.4983 11.4769 11.5163 10.6988 11.5262C10.4261 11.5302 10.1734 11.5322 9.9465 11.5322H9.37732L8.62505 11.5262C7.8469 11.5163 7.06876 11.4983 6.34236 11.4705C4.91145 11.4148 3.85668 11.3272 3.44074 11.2157C2.98301 11.0924 2.6208 10.7302 2.49741 10.2704C2.40388 9.91818 2.32825 9.39278 2.27452 8.75196C2.23273 8.26039 2.20685 7.73102 2.19093 7.20164C2.18496 7.01656 2.18297 6.84342 2.18098 6.69018C2.18098 6.63644 2.17899 6.58868 2.17899 6.54888V6.45335C2.17899 6.41156 2.17899 6.36578 2.18098 6.31205C2.18297 6.15682 2.18695 5.98567 2.19093 5.80058C2.20486 5.27121 2.23273 4.74183 2.27452 4.25027C2.32825 3.60944 2.40388 3.08405 2.49741 2.73179C2.6208 2.27207 2.98301 1.90788 3.44074 1.78648C3.85867 1.67503 4.91145 1.58547 6.34236 1.53174C7.06677 1.50388 7.8469 1.48597 8.62505 1.47602C8.8977 1.47204 9.15044 1.47005 9.37732 1.47005H9.9465L10.6988 1.47602C11.4769 1.48597 12.2551 1.50388 12.9815 1.53174C14.4124 1.58746 15.4671 1.67503 15.8831 1.78648C16.3408 1.90987 16.703 2.27207 16.8264 2.73179C16.9199 3.08405 16.9956 3.60944 17.0493 4.25027C17.0911 4.74183 17.117 5.27121 17.1329 5.80058C17.1389 5.98567 17.1408 6.15881 17.1428 6.31205C17.1428 6.36578 17.1448 6.41355 17.1448 6.45335V6.54888ZM7.89069 9.1679L12.5078 6.48121L7.89069 3.83433V9.1679Z" fill="white"/>
</svg>
